<svg width="56" height="56" viewBox="0 0 56 56" fill="none" xmlns="http://www.w3.org/2000/svg">
<path d="M28 0C43.464 0 56 12.536 56 28C56 43.464 43.464 56 28 56C12.536 56 0 43.464 0 28C0 12.536 12.536 0 28 0ZM39.0205 21.4541C37.3259 21.4541 35.7966 21.8158 34.4326 22.5391C33.0687 23.2623 31.9943 24.3061 31.209 25.6699C30.4237 27.0132 30.0303 28.5734 30.0303 30.3506C30.0303 32.1486 30.4131 33.7201 31.1777 35.0635C31.963 36.4065 33.0271 37.4398 34.3701 38.1631C35.7341 38.8864 37.2643 39.248 38.959 39.248C40.6535 39.248 42.183 38.8864 43.5469 38.1631C44.9313 37.4398 46.0165 36.4066 46.8018 35.0635C47.6078 33.6995 48.0107 32.1279 48.0107 30.3506C48.0107 28.5734 47.6173 27.0132 46.832 25.6699C46.0467 24.306 44.9723 23.2623 43.6084 22.5391C42.2444 21.8157 40.7151 21.4541 39.0205 21.4541ZM19.0654 16.9902C16.9575 16.9902 15.0665 17.4654 13.3926 18.416C11.7394 19.3459 10.4476 20.6581 9.51758 22.3525C8.58759 24.0265 8.12209 25.9386 8.12207 28.0879C8.12207 30.2372 8.58758 32.1492 9.51758 33.8232C10.4476 35.4971 11.7394 36.8092 13.3926 37.7598C15.0665 38.6897 16.9575 39.1553 19.0654 39.1553C21.6487 39.1552 23.8599 38.4829 25.6992 37.1396C27.5385 35.7757 28.7687 33.9155 29.3887 31.5596H23.5605C23.1266 32.4689 22.5061 33.1614 21.7002 33.6367C20.9149 34.1121 20.0156 34.3496 19.0029 34.3496C17.3704 34.3495 16.0478 33.7811 15.0352 32.6445C14.0227 31.5079 13.5166 29.9891 13.5166 28.0879C13.5166 26.1867 14.0226 24.6679 15.0352 23.5312C16.0478 22.3947 17.3704 21.8262 19.0029 21.8262C20.0156 21.8262 20.9149 22.0637 21.7002 22.5391C22.5062 23.0144 23.1265 23.7069 23.5605 24.6162H29.3887C28.7687 22.2602 27.5385 20.4001 25.6992 19.0361C23.8599 17.6722 21.6487 16.9903 19.0654 16.9902ZM39.0205 26.042C40.0332 26.042 40.8805 26.4142 41.5625 27.1582C42.265 27.9021 42.6161 28.9662 42.6162 30.3506C42.6162 31.7353 42.2546 32.7999 41.5312 33.5439C40.8287 34.2878 39.9714 34.66 38.959 34.6602C37.9463 34.6602 37.098 34.2879 36.416 33.5439C35.7548 32.8 35.4248 31.7351 35.4248 30.3506C35.4249 28.9456 35.7655 27.8815 36.4473 27.1582C37.1293 26.4142 37.9872 26.042 39.0205 26.042Z" fill="#FBBB00"/>
</svg>
