<svg width="193" height="229" viewBox="0 0 193 229" fill="none" xmlns="http://www.w3.org/2000/svg">
<g filter="url(#filter0_d_25_13)">
<path d="M190.45 6.94601C190.696 5.86927 190.023 4.79667 188.946 4.5503L171.4 0.53543C170.323 0.289058 169.25 0.962206 169.004 2.03895C168.757 3.11569 169.431 4.18829 170.507 4.43466L186.104 8.00343L182.536 23.6004C182.289 24.6771 182.962 25.7497 184.039 25.9961C185.116 26.2424 186.188 25.5693 186.435 24.4925L190.45 6.94601ZM10.4053 222.001L12.2973 221.352C11.6469 219.455 10.9389 217.205 10.2516 214.639L8.31972 215.157L6.38781 215.674C7.10156 218.339 7.83716 220.676 8.51337 222.649L10.4053 222.001ZM5.5492 201.094L7.53295 200.839C6.98179 196.542 6.64852 191.838 6.68465 186.796L4.6847 186.782L2.68476 186.767C2.64723 192.003 2.99334 196.887 3.56545 201.348L5.5492 201.094ZM5.75767 172.489L7.73736 172.774C8.37179 168.356 9.32093 163.762 10.6604 159.027L8.73585 158.482L6.81135 157.938C5.4221 162.85 4.43681 167.617 3.77798 172.205L5.75767 172.489ZM13.5142 144.962L15.3544 145.745C17.1144 141.61 19.1936 137.395 21.6363 133.121L19.8998 132.128L18.1633 131.136C15.6436 135.545 13.4951 139.9 11.6739 144.179L13.5142 144.962ZM27.6597 120.091L29.2828 121.26C30.6344 119.383 32.0607 117.498 33.5654 115.606L32.0003 114.361L30.4351 113.116C28.891 115.057 27.426 116.993 26.0367 118.923L27.6597 120.091ZM32.0003 114.361L33.5654 115.606C35.0069 113.794 36.5048 112.066 38.0528 110.419L36.5956 109.049L35.1383 107.679C33.5155 109.405 31.9455 111.217 30.4351 113.116L32.0003 114.361ZM47.0027 99.6655L48.2152 101.256C51.9112 98.4387 55.7764 95.9801 59.7473 93.8659L58.8073 92.1005L57.8674 90.3352C53.7115 92.5479 49.6634 95.1226 45.7903 98.0749L47.0027 99.6655ZM71.6631 86.5128L72.3137 88.404C76.7193 86.8884 81.1681 85.7507 85.5814 84.9733L85.2345 83.0036L84.8875 81.0339C80.2706 81.8473 75.6185 83.037 71.0125 84.6216L71.6631 86.5128ZM99.1921 81.6958L99.2128 83.6957C103.937 83.6469 108.507 84.0198 112.815 84.786L113.165 82.8169L113.515 80.8478C108.949 80.0358 104.131 79.6447 99.1715 79.6959L99.1921 81.6958ZM126.579 86.7999L125.775 88.6313C130.125 90.5398 133.9 92.9612 136.942 95.8315L138.315 94.3768L139.687 92.9222C136.263 89.6913 132.085 87.032 127.382 84.9684L126.579 86.7999ZM145.942 105.988L144.049 106.635C144.732 108.633 145.171 110.755 145.339 112.999L147.334 112.85L149.328 112.701C149.135 110.122 148.628 107.665 147.834 105.342L145.942 105.988ZM147.334 112.85L145.339 112.999C145.503 115.188 145.497 117.218 145.344 119.092L147.338 119.255L149.331 119.417C149.502 117.319 149.507 115.081 149.328 112.701L147.334 112.85ZM143.558 131.365L141.872 130.288C139.629 133.8 136.515 136.078 133.061 137.23L133.695 139.127L134.328 141.024C138.628 139.589 142.495 136.744 145.243 132.441L143.558 131.365ZM121.092 139.155L121.684 137.245C118.109 136.137 114.735 133.996 112.081 130.88L110.559 132.176L109.036 133.473C112.191 137.178 116.215 139.737 120.5 141.065L121.092 139.155ZM105.12 120.735L107.08 120.336C106.705 118.49 106.5 116.498 106.5 114.361L104.5 114.361L102.5 114.361C102.5 116.755 102.729 119.014 103.16 121.133L105.12 120.735ZM104.5 114.361L106.5 114.361C106.5 111.988 106.561 109.64 106.701 107.307L104.705 107.187L102.708 107.067C102.563 109.491 102.5 111.92 102.5 114.361L104.5 114.361ZM106.689 92.987L108.638 93.4357C109.646 89.0614 111.073 84.6718 113.053 80.212L111.225 79.4007L109.397 78.5893C107.31 83.291 105.803 87.9242 104.74 92.5383L106.689 92.987ZM118.163 66.8604L119.829 67.9676C122.249 64.3268 125.088 60.6054 128.414 56.779L126.904 55.4671L125.394 54.1552C121.966 58.1 119.021 61.9574 116.498 65.7531L118.163 66.8604ZM136.839 45.1095L138.22 46.5564C141.432 43.4913 144.957 40.354 148.827 37.1336L147.547 35.5964L146.268 34.0592C142.335 37.3322 138.741 40.5296 135.459 43.6627L136.839 45.1095ZM158.843 26.6934L160.043 28.2938C163.661 25.5822 167.516 22.8115 171.623 19.976L170.487 18.3301L169.351 16.6842C165.204 19.5469 161.307 22.3479 157.644 25.093L158.843 26.6934ZM182.434 10.3613L183.519 12.0414C185.484 10.7718 187.499 9.48952 189.563 8.19394L188.5 6.49991L187.437 4.80589C185.358 6.1104 183.329 7.40204 181.349 8.68128L182.434 10.3613Z" fill="#FBBB00"/>
</g>
<defs>
<filter id="filter0_d_25_13" x="0.381885" y="0.484619" width="192.419" height="228.464" filterUnits="userSpaceOnUse" color-interpolation-filters="sRGB">
<feFlood flood-opacity="0" result="BackgroundImageFix"/>
<feColorMatrix in="SourceAlpha" type="matrix" values="0 0 0 0 0 0 0 0 0 0 0 0 0 0 0 0 0 0 127 0" result="hardAlpha"/>
<feOffset dy="4"/>
<feGaussianBlur stdDeviation="1.15"/>
<feComposite in2="hardAlpha" operator="out"/>
<feColorMatrix type="matrix" values="0 0 0 0 0 0 0 0 0 0 0 0 0 0 0 0 0 0 1 0"/>
<feBlend mode="normal" in2="BackgroundImageFix" result="effect1_dropShadow_25_13"/>
<feBlend mode="normal" in="SourceGraphic" in2="effect1_dropShadow_25_13" result="shape"/>
</filter>
</defs>
</svg>
