<svg width="160" height="60" viewBox="0 0 160 60" fill="none" xmlns="http://www.w3.org/2000/svg">
<g clip-path="url(#clip0_22_2)">
<path d="M1.32 29.92C1.32 27.1467 1.92 24.68 3.12 22.52C4.32 20.3333 5.98667 18.64 8.12 17.44C10.28 16.2133 12.72 15.6 15.44 15.6C18.7733 15.6 21.6267 16.48 24 18.24C26.3733 20 27.96 22.4 28.76 25.44H21.24C20.68 24.2667 19.88 23.3733 18.84 22.76C17.8267 22.1467 16.6667 21.84 15.36 21.84C13.2533 21.84 11.5467 22.5733 10.24 24.04C8.93333 25.5067 8.28 27.4667 8.28 29.92C8.28 32.3733 8.93333 34.3333 10.24 35.8C11.5467 37.2667 13.2533 38 15.36 38C16.6667 38 17.8267 37.6933 18.84 37.08C19.88 36.4667 20.68 35.5733 21.24 34.4H28.76C27.96 37.44 26.3733 39.84 24 41.6C21.6267 43.3333 18.7733 44.2 15.44 44.2C12.72 44.2 10.28 43.6 8.12 42.4C5.98667 41.1733 4.32 39.48 3.12 37.32C1.92 35.16 1.32 32.6933 1.32 29.92ZM43.1088 44.32C40.9221 44.32 38.9488 43.8533 37.1888 42.92C35.4554 41.9867 34.0821 40.6533 33.0688 38.92C32.0821 37.1867 31.5888 35.16 31.5888 32.84C31.5888 30.5467 32.0954 28.5333 33.1087 26.8C34.1221 25.04 35.5088 23.6933 37.2688 22.76C39.0288 21.8267 41.0021 21.36 43.1888 21.36C45.3754 21.36 47.3488 21.8267 49.1088 22.76C50.8688 23.6933 52.2554 25.04 53.2688 26.8C54.2821 28.5333 54.7888 30.5467 54.7888 32.84C54.7888 35.1333 54.2688 37.16 53.2288 38.92C52.2154 40.6533 50.8154 41.9867 49.0288 42.92C47.2688 43.8533 45.2954 44.32 43.1088 44.32ZM43.1088 38.4C44.4154 38.4 45.5221 37.92 46.4288 36.96C47.3621 36 47.8288 34.6267 47.8288 32.84C47.8288 31.0533 47.3754 29.68 46.4688 28.72C45.5888 27.76 44.4954 27.28 43.1888 27.28C41.8554 27.28 40.7488 27.76 39.8688 28.72C38.9888 29.6533 38.5488 31.0267 38.5488 32.84C38.5488 34.6267 38.9754 36 39.8288 36.96C40.7088 37.92 41.8021 38.4 43.1088 38.4Z" fill="#FBBB00"/>
<path d="M79.8175 24.96C79.8175 26.5867 79.4442 28.08 78.6975 29.44C77.9508 30.7733 76.8042 31.8533 75.2575 32.68C73.7108 33.5067 71.7908 33.92 69.4975 33.92H65.2575V44H58.4175V15.92H69.4975C71.7375 15.92 73.6308 16.3067 75.1775 17.08C76.7242 17.8533 77.8842 18.92 78.6575 20.28C79.4308 21.64 79.8175 23.2 79.8175 24.96ZM68.9775 28.48C70.2842 28.48 71.2575 28.1733 71.8975 27.56C72.5375 26.9467 72.8575 26.08 72.8575 24.96C72.8575 23.84 72.5375 22.9733 71.8975 22.36C71.2575 21.7467 70.2842 21.44 68.9775 21.44H65.2575V28.48H68.9775ZM82.0184 32.8C82.0184 30.5067 82.4451 28.4933 83.2984 26.76C84.1784 25.0267 85.3651 23.6933 86.8584 22.76C88.3518 21.8267 90.0184 21.36 91.8584 21.36C93.4318 21.36 94.8051 21.68 95.9784 22.32C97.1784 22.96 98.0984 23.8 98.7384 24.84V21.68H105.578V44H98.7384V40.84C98.0718 41.88 97.1384 42.72 95.9384 43.36C94.7651 44 93.3918 44.32 91.8184 44.32C90.0051 44.32 88.3518 43.8533 86.8584 42.92C85.3651 41.96 84.1784 40.6133 83.2984 38.88C82.4451 37.12 82.0184 35.0933 82.0184 32.8ZM98.7384 32.84C98.7384 31.1333 98.2584 29.7867 97.2984 28.8C96.3651 27.8133 95.2184 27.32 93.8584 27.32C92.4984 27.32 91.3384 27.8133 90.3784 28.8C89.4451 29.76 88.9784 31.0933 88.9784 32.8C88.9784 34.5067 89.4451 35.8667 90.3784 36.88C91.3384 37.8667 92.4984 38.36 93.8584 38.36C95.2184 38.36 96.3651 37.8667 97.2984 36.88C98.2584 35.8933 98.7384 34.5467 98.7384 32.84ZM119.007 21.36C120.58 21.36 121.954 21.68 123.127 22.32C124.327 22.96 125.247 23.8 125.887 24.84V21.68H132.727V43.96C132.727 46.0133 132.314 47.8667 131.487 49.52C130.687 51.2 129.447 52.5333 127.767 53.52C126.114 54.5067 124.047 55 121.567 55C118.26 55 115.58 54.2133 113.527 52.64C111.474 51.0933 110.3 48.9867 110.007 46.32H116.767C116.98 47.1733 117.487 47.84 118.287 48.32C119.087 48.8267 120.074 49.08 121.247 49.08C122.66 49.08 123.78 48.6667 124.607 47.84C125.46 47.04 125.887 45.7467 125.887 43.96V40.8C125.22 41.84 124.3 42.6933 123.127 43.36C121.954 44 120.58 44.32 119.007 44.32C117.167 44.32 115.5 43.8533 114.007 42.92C112.514 41.96 111.327 40.6133 110.447 38.88C109.594 37.12 109.167 35.0933 109.167 32.8C109.167 30.5067 109.594 28.4933 110.447 26.76C111.327 25.0267 112.514 23.6933 114.007 22.76C115.5 21.8267 117.167 21.36 119.007 21.36ZM125.887 32.84C125.887 31.1333 125.407 29.7867 124.447 28.8C123.514 27.8133 122.367 27.32 121.007 27.32C119.647 27.32 118.487 27.8133 117.527 28.8C116.594 29.76 116.127 31.0933 116.127 32.8C116.127 34.5067 116.594 35.8667 117.527 36.88C118.487 37.8667 119.647 38.36 121.007 38.36C122.367 38.36 123.514 37.8667 124.447 36.88C125.407 35.8933 125.887 34.5467 125.887 32.84ZM158.715 32.48C158.715 33.12 158.675 33.7867 158.595 34.48H143.115C143.222 35.8667 143.662 36.9333 144.435 37.68C145.235 38.4 146.209 38.76 147.355 38.76C149.062 38.76 150.249 38.04 150.915 36.6H158.195C157.822 38.0667 157.142 39.3867 156.155 40.56C155.195 41.7333 153.982 42.6533 152.515 43.32C151.049 43.9867 149.409 44.32 147.595 44.32C145.409 44.32 143.462 43.8533 141.755 42.92C140.049 41.9867 138.715 40.6533 137.755 38.92C136.795 37.1867 136.315 35.16 136.315 32.84C136.315 30.52 136.782 28.4933 137.715 26.76C138.675 25.0267 140.009 23.6933 141.715 22.76C143.422 21.8267 145.382 21.36 147.595 21.36C149.755 21.36 151.675 21.8133 153.355 22.72C155.035 23.6267 156.342 24.92 157.275 26.6C158.235 28.28 158.715 30.24 158.715 32.48ZM151.715 30.68C151.715 29.5067 151.315 28.5733 150.515 27.88C149.715 27.1867 148.715 26.84 147.515 26.84C146.369 26.84 145.395 27.1733 144.595 27.84C143.822 28.5067 143.342 29.4533 143.155 30.68H151.715Z" fill="black"/>
</g>
<defs>
<clipPath id="clip0_22_2">
<rect width="160" height="60" fill="white"/>
</clipPath>
</defs>
</svg>
